<?xml version="1.0" encoding="UTF-8" standalone="no"?>
<!-- Created with Inkscape (http://www.inkscape.org/) -->

<svg
   width="210mm"
   height="297mm"
   viewBox="0 0 210 297"
   version="1.1"
   id="svg2762"
   inkscape:version="1.2.2 (732a01da63, 2022-12-09)"
   xmlns:inkscape="http://www.inkscape.org/namespaces/inkscape"
   xmlns:sodipodi="http://sodipodi.sourceforge.net/DTD/sodipodi-0.dtd"
   xmlns="http://www.w3.org/2000/svg"
   xmlns:svg="http://www.w3.org/2000/svg">
  <sodipodi:namedview
     id="namedview2764"
     pagecolor="#ffffff"
     bordercolor="#666666"
     borderopacity="1.0"
     inkscape:showpageshadow="2"
     inkscape:pageopacity="0.0"
     inkscape:pagecheckerboard="0"
     inkscape:deskcolor="#d1d1d1"
     inkscape:document-units="mm"
     showgrid="false"
     inkscape:zoom="0.2102413"
     inkscape:cx="394.78447"
     inkscape:cy="561.25984"
     inkscape:window-width="1280"
     inkscape:window-height="747"
     inkscape:window-x="-8"
     inkscape:window-y="-8"
     inkscape:window-maximized="1"
     inkscape:current-layer="layer1" />
  <defs
     id="defs2759" />
  <g
     inkscape:label="Capa 1"
     inkscape:groupmode="layer"
     id="layer1">
    <g
       id="g597"
       transform="matrix(5.2452053,0,0,5.0356979,-2758.0003,-1149.3644)">
					<g
   id="g595">
						<g
   id="g581">
							<path
   class="st8"
   d="m 510.21,249.76 c 2.32,0 4.64,0 6.96,0.01 0.19,0 0.46,-0.11 0.54,0.12 0.08,0.22 -0.19,0.33 -0.33,0.47 -2.23,2.2 -4.48,4.39 -6.7,6.61 -0.35,0.34 -0.56,0.39 -0.94,0.02 -2.22,-2.22 -4.47,-4.4 -6.7,-6.61 -0.14,-0.14 -0.41,-0.26 -0.33,-0.47 0.1,-0.26 0.4,-0.12 0.61,-0.12 2.3,-0.03 4.59,-0.03 6.89,-0.03 z"
   id="path579"
   style="fill:#ffba08" />

						</g>

						<g
   id="g585">
							<path
   class="st8"
   d="m 510.19,261.2 c -2.34,0 -4.69,0 -7.03,-0.01 -0.19,0 -0.46,0.11 -0.56,-0.11 -0.1,-0.23 0.17,-0.35 0.3,-0.49 1.32,-1.41 2.67,-2.8 3.97,-4.23 0.32,-0.35 0.49,-0.3 0.79,0.01 0.69,0.72 1.43,1.4 2.13,2.12 0.3,0.31 0.53,0.33 0.84,0.01 0.71,-0.74 1.46,-1.43 2.18,-2.17 0.24,-0.24 0.38,-0.29 0.64,-0.01 1.37,1.46 2.76,2.9 4.14,4.36 0.11,0.11 0.3,0.2 0.25,0.38 -0.07,0.23 -0.3,0.15 -0.47,0.15 -2.41,-0.01 -4.8,-0.01 -7.18,-0.01 z"
   id="path583"
   style="fill:#ffba08" />

						</g>

						<g
   id="g589">
							<path
   class="st8"
   d="m 518.81,255.41 c 0,1.43 0,2.86 0,4.29 0,0.15 0.08,0.35 -0.11,0.42 -0.19,0.08 -0.28,-0.11 -0.38,-0.22 -1.38,-1.44 -2.76,-2.89 -4.14,-4.33 -0.21,-0.22 -0.26,-0.35 -0.01,-0.59 1.39,-1.34 2.76,-2.7 4.14,-4.05 0.11,-0.11 0.21,-0.29 0.38,-0.23 0.22,0.08 0.13,0.31 0.13,0.48 -0.01,1.42 -0.01,2.83 -0.01,4.23 z"
   id="path587"
   style="fill:#ffba08" />

						</g>

						<g
   id="g593">
							<path
   class="st8"
   d="m 501.83,250.68 c 0.13,0.12 0.25,0.22 0.36,0.33 1.31,1.29 2.62,2.59 3.94,3.87 0.25,0.24 0.36,0.39 0.06,0.7 -1.38,1.42 -2.72,2.87 -4.09,4.3 -0.1,0.11 -0.18,0.31 -0.37,0.25 -0.2,-0.06 -0.11,-0.27 -0.12,-0.41 -0.01,-2.86 0,-5.73 0,-8.59 0.01,-0.17 -0.05,-0.38 0.22,-0.45 z"
   id="path591"
   style="fill:#ffba08" />

						</g>

					</g>

				</g>
  </g>
</svg>
