<?xml version="1.0" encoding="UTF-8" standalone="no"?>
<!-- Created with Inkscape (http://www.inkscape.org/) -->

<svg
   width="69.965149mm"
   height="88.919189mm"
   viewBox="0 0 69.965149 88.919189"
   version="1.1"
   id="svg2762"
   xmlns="http://www.w3.org/2000/svg"
   xmlns:svg="http://www.w3.org/2000/svg">
  <defs
     id="defs2759" />
  <g
     id="layer1"
     transform="translate(162.08843,-72.578581)">
    <g
       id="g603"
       transform="matrix(5.2452053,0,0,5.0356979,-2803.4089,-1538.4412)">
      <g
         id="g601">
        <path
           class="st8"
           d="m 510.22,319.92 c -4.63,-0.03 -8.03,4.86 -6.1,9.01 1.39,3 3.29,5.65 5.32,8.23 0.45,0.57 1.14,0.55 1.59,-0.02 1.98,-2.5 3.86,-5.07 5.19,-7.99 0.43,-0.93 0.74,-1.9 0.68,-2.96 -0.21,-3.5 -3.16,-6.27 -6.68,-6.27 z m 0.02,9.67 c -1.65,0 -3,-1.33 -3.01,-2.98 -0.01,-1.65 1.33,-3 2.98,-3 1.65,-0.01 3,1.32 3.01,2.98 0.01,1.63 -1.34,3 -2.98,3 z"
           id="path599"
           style="fill:#ffba08" />
      </g>
    </g>
  </g>
</svg>
