<?xml version="1.0" encoding="UTF-8" standalone="no"?>
<!-- Created with Inkscape (http://www.inkscape.org/) -->

<svg
   width="210mm"
   height="297mm"
   viewBox="0 0 210 297"
   version="1.1"
   id="svg2762"
   inkscape:version="1.2.2 (732a01da63, 2022-12-09)"
   xmlns:inkscape="http://www.inkscape.org/namespaces/inkscape"
   xmlns:sodipodi="http://sodipodi.sourceforge.net/DTD/sodipodi-0.dtd"
   xmlns="http://www.w3.org/2000/svg"
   xmlns:svg="http://www.w3.org/2000/svg">
  <sodipodi:namedview
     id="namedview2764"
     pagecolor="#ffffff"
     bordercolor="#666666"
     borderopacity="1.0"
     inkscape:showpageshadow="2"
     inkscape:pageopacity="0.0"
     inkscape:pagecheckerboard="0"
     inkscape:deskcolor="#d1d1d1"
     inkscape:document-units="mm"
     showgrid="false"
     inkscape:zoom="0.2102413"
     inkscape:cx="394.78447"
     inkscape:cy="561.25984"
     inkscape:window-width="1280"
     inkscape:window-height="747"
     inkscape:window-x="-8"
     inkscape:window-y="-8"
     inkscape:window-maximized="1"
     inkscape:current-layer="layer1" />
  <defs
     id="defs2759" />
  <g
     inkscape:label="Capa 1"
     inkscape:groupmode="layer"
     id="layer1">
    <g
       id="g577"
       transform="matrix(5.2452053,0,0,5.0356979,-2813.4477,-1688.9704)">
					<g
   id="g575">
						<g
   id="g541">
							<path
   class="st8"
   d="m 513.1,365.36 c 0,0.68 0,1.36 0,2.04 0,0.36 -0.12,0.56 -0.54,0.6 -1.57,0.13 -3.13,0.15 -4.69,-0.01 -0.33,-0.03 -0.45,-0.15 -0.48,-0.49 -0.15,-1.54 -0.11,-3.08 0.04,-4.63 0.03,-0.34 0.14,-0.51 0.53,-0.54 1.54,-0.14 3.08,-0.14 4.63,0.01 0.3,0.03 0.42,0.13 0.46,0.44 0.09,0.86 0.1,1.72 0.05,2.58 z"
   id="path539"
   style="fill:#ffba08" />

						</g>

						<g
   id="g545">
							<path
   class="st8"
   d="m 510.26,369.23 c 0.74,-0.03 1.46,-0.06 2.19,-0.11 0.27,-0.02 0.44,-0.06 0.35,0.33 -0.28,1.22 -0.6,2.43 -1.33,3.47 -0.81,1.16 -1.66,1.17 -2.47,0.02 -0.73,-1.04 -1.05,-2.25 -1.33,-3.47 -0.07,-0.32 0.03,-0.38 0.35,-0.35 0.75,0.06 1.5,0.07 2.24,0.11 z"
   id="path543"
   style="fill:#ffba08" />

						</g>

						<g
   id="g549">
							<path
   class="st8"
   d="m 514.3,365.34 c -0.05,-0.79 -0.09,-1.58 -0.15,-2.37 -0.02,-0.26 0,-0.4 0.31,-0.32 1.19,0.29 2.38,0.61 3.38,1.35 1.05,0.77 1.06,1.59 0.02,2.35 -0.99,0.73 -2.14,1.06 -3.32,1.34 -0.28,0.07 -0.35,-0.02 -0.34,-0.3 0.02,-0.68 0.01,-1.36 0.01,-2.04 0.03,-0.01 0.06,-0.01 0.09,-0.01 z"
   id="path547"
   style="fill:#ffba08" />

						</g>

						<g
   id="g553">
							<path
   class="st8"
   d="m 506.34,362.58 c -0.16,1.67 -0.24,3.23 -0.06,4.79 0.03,0.27 -0.04,0.38 -0.33,0.31 -1.22,-0.28 -2.42,-0.62 -3.43,-1.41 -0.93,-0.73 -0.92,-1.48 0.04,-2.22 1.08,-0.84 2.37,-1.17 3.78,-1.47 z"
   id="path551"
   style="fill:#ffba08" />

						</g>

						<g
   id="g557">
							<path
   class="st8"
   d="m 507.7,361.24 c 0.28,-1.29 0.62,-2.49 1.39,-3.51 0.74,-0.99 1.51,-1 2.27,-0.02 0.74,0.96 1.07,2.1 1.36,3.25 0.05,0.18 0.02,0.31 -0.22,0.28 -1.6,-0.19 -3.18,-0.14 -4.8,0 z"
   id="path555"
   style="fill:#ffba08" />

						</g>

						<g
   id="g561">
							<path
   class="st8"
   d="m 518.35,367.37 c -0.5,2.77 -3.12,5.47 -5.86,6.08 0.79,-1.36 1.25,-2.79 1.48,-4.29 0.05,-0.33 0.31,-0.29 0.52,-0.33 1.33,-0.28 2.62,-0.7 3.86,-1.46 z"
   id="path559"
   style="fill:#ffba08" />

						</g>

						<g
   id="g565">
							<path
   class="st8"
   d="m 502.13,367.37 c 1.21,0.76 2.51,1.2 3.88,1.44 0.41,0.07 0.49,0.32 0.54,0.64 0.24,1.37 0.66,2.68 1.38,3.9 -2.19,0.02 -5.42,-3.3 -5.8,-5.98 z"
   id="path563"
   style="fill:#ffba08" />

						</g>

						<g
   id="g569">
							<path
   class="st8"
   d="m 512.45,357.32 c 2.66,0.63 5.25,3.14 5.72,5.54 -1.23,-0.71 -2.53,-1.14 -3.89,-1.37 -0.36,-0.06 -0.4,-0.3 -0.46,-0.57 -0.24,-1.25 -0.66,-2.44 -1.37,-3.6 z"
   id="path567"
   style="fill:#ffba08" />

						</g>

						<g
   id="g573">
							<path
   class="st8"
   d="m 502.27,362.87 c 0.6,-2.5 2.96,-4.8 5.72,-5.56 -0.73,1.25 -1.16,2.54 -1.42,3.89 -0.04,0.23 -0.23,0.26 -0.41,0.29 -1.36,0.24 -2.66,0.67 -3.89,1.38 z"
   id="path571"
   style="fill:#ffba08" />

						</g>

					</g>

				</g>
  </g>
</svg>
